<?xml version="1.0" encoding="utf-8"?>
<!-- Generator: Adobe Illustrator 15.1.0, SVG Export Plug-In . SVG Version: 6.00 Build 0)  -->
<!DOCTYPE svg PUBLIC "-//W3C//DTD SVG 1.1//EN" "http://www.w3.org/Graphics/SVG/1.1/DTD/svg11.dtd">
<svg version="1.1" id="Layer_1" xmlns="http://www.w3.org/2000/svg" xmlns:xlink="http://www.w3.org/1999/xlink" x="0px" y="0px"
	 width="52px" height="52px" viewBox="0 0 52 52" enable-background="new 0 0 52 52" xml:space="preserve">
<g>
	<path fill="#FFFFFF" d="M25.627,14.576c0.219,0.135,0.464,0.333,0.736,0.593c0.262,0.271,0.518,0.604,0.77,1
		c0.239,0.373,0.452,0.813,0.638,1.322c0.152,0.508,0.229,1.101,0.229,1.779c-0.021,1.243-0.295,2.236-0.822,2.981
		c-0.259,0.362-0.533,0.695-0.823,1c-0.321,0.305-0.663,0.616-1.024,0.931c-0.207,0.215-0.398,0.458-0.574,0.729
		c-0.207,0.282-0.311,0.61-0.311,0.982c0,0.362,0.106,0.661,0.319,0.898c0.18,0.226,0.355,0.424,0.525,0.593l1.178,0.966
		c0.732,0.599,1.375,1.259,1.927,1.982c0.52,0.734,0.791,1.694,0.813,2.88c0,1.683-0.743,3.174-2.23,4.473
		c-1.541,1.344-3.765,2.038-6.67,2.084c-2.433-0.023-4.25-0.541-5.449-1.557c-1.211-0.946-1.816-2.079-1.816-3.398
		c0-0.643,0.197-1.358,0.591-2.148c0.382-0.788,1.074-1.482,2.076-2.079c1.125-0.643,2.307-1.071,3.544-1.284
		c1.226-0.182,2.244-0.282,3.054-0.305c-0.25-0.329-0.473-0.683-0.669-1.058c-0.229-0.362-0.343-0.799-0.343-1.311
		c0-0.306,0.043-0.562,0.13-0.766c0.076-0.216,0.147-0.415,0.212-0.596c-0.395,0.045-0.767,0.068-1.116,0.068
		c-1.849-0.022-3.258-0.604-4.228-1.745c-1.015-1.062-1.522-2.298-1.522-3.71c0-1.705,0.719-3.252,2.157-4.641
		c0.987-0.813,2.013-1.344,3.078-1.592c1.054-0.214,2.041-0.322,2.963-0.322h6.945l-2.145,1.252H25.627z M26.969,34.569
		c0-0.882-0.288-1.649-0.863-2.305c-0.609-0.621-1.559-1.383-2.853-2.287c-0.221-0.022-0.48-0.033-0.779-0.033
		c-0.177-0.023-0.631,0-1.36,0.066c-0.719,0.103-1.455,0.266-2.207,0.492c-0.177,0.067-0.426,0.169-0.746,0.305
		c-0.321,0.147-0.647,0.356-0.979,0.627c-0.321,0.282-0.591,0.633-0.813,1.051c-0.254,0.44-0.381,0.972-0.381,1.593
		c0,1.221,0.553,2.226,1.659,3.017c1.051,0.79,2.489,1.197,4.313,1.22c1.637-0.022,2.887-0.384,3.75-1.085
		C26.549,36.54,26.969,35.653,26.969,34.569z M22.126,24.388c0.914-0.034,1.676-0.362,2.286-0.985
		c0.294-0.441,0.483-0.894,0.567-1.357c0.05-0.464,0.076-0.854,0.076-1.171c0-1.37-0.35-2.75-1.051-4.142
		c-0.329-0.667-0.761-1.211-1.297-1.63c-0.547-0.396-1.177-0.605-1.888-0.628c-0.941,0.023-1.724,0.402-2.348,1.137
		c-0.526,0.77-0.778,1.63-0.755,2.581c0,1.256,0.368,2.563,1.103,3.921c0.355,0.634,0.815,1.171,1.378,1.612
		C20.76,24.168,21.403,24.388,22.126,24.388z"/>
</g>
<polygon id="PLUS" fill="#FFFFFF" points="39.325,17.117 35.68,17.117 35.68,13.472 33.915,13.472 33.915,17.117 30.271,17.117 
	30.271,18.882 33.915,18.882 33.915,22.527 35.68,22.527 35.68,18.882 39.325,18.882 "/>
</svg>
